<svg width="696" height="219" viewBox="0 0 696 219" fill="none" xmlns="http://www.w3.org/2000/svg">
<path d="M77.35 99.91H83V141.81C83 150.11 80.8767 156.443 76.63 160.81C72.3833 165.177 66.24 167.36 58.2 167.36C50.16 167.36 44.0167 165.177 39.77 160.81C35.5233 156.443 33.4033 150.11 33.41 141.81V99.91H39V142.85C39 149.063 40.6467 153.83 43.94 157.15C47.2333 160.47 51.9833 162.137 58.19 162.15C64.4033 162.15 69.1533 160.483 72.44 157.15C75.7267 153.817 77.3733 149.05 77.38 142.85L77.35 99.91Z" fill="#A166FF"/>
<path d="M120.77 153.21C120.782 152.392 120.623 151.581 120.303 150.828C119.982 150.075 119.508 149.398 118.91 148.84C117.082 147.301 114.968 146.139 112.69 145.42L104.05 142.19C97.27 139.657 93.88 135.507 93.88 129.74C93.8284 127.916 94.2007 126.105 94.9677 124.45C95.7346 122.795 96.8754 121.34 98.3 120.2C101.24 117.76 105.087 116.54 109.84 116.54C112.173 116.551 114.499 116.806 116.78 117.3C119.062 117.769 121.29 118.469 123.43 119.39V123.85C118.96 122.321 114.283 121.488 109.56 121.38C106.14 121.38 103.56 122.07 101.77 123.43C100.877 124.143 100.169 125.06 99.7063 126.105C99.2432 127.149 99.0387 128.29 99.11 129.43C99.0493 130.347 99.1827 131.266 99.5015 132.127C99.8203 132.989 100.317 133.774 100.96 134.43C102.2 135.603 104.623 136.883 108.23 138.27L115.83 141.12C119.37 142.45 121.96 144.12 123.57 146.02C125.213 148.041 126.073 150.587 125.99 153.19C126.069 155.142 125.684 157.085 124.867 158.86C124.05 160.634 122.824 162.19 121.29 163.4C118.15 165.9 113.89 167.15 108.51 167.15C103.145 167.251 97.8309 166.087 93 163.75V159.29C98.0735 161.199 103.44 162.214 108.86 162.29C112.72 162.29 115.667 161.513 117.7 159.96C118.718 159.166 119.53 158.138 120.064 156.962C120.599 155.787 120.841 154.499 120.77 153.21Z" fill="#A166FF"/>
<path d="M138.53 142.76C138.59 149.427 140.047 154.333 142.9 157.48C145.753 160.627 150.157 162.21 156.11 162.23C161.509 162.243 166.85 161.111 171.78 158.91V163.37C166.852 166.012 161.32 167.321 155.73 167.17C148.19 167.17 142.523 165.033 138.73 160.76C134.937 156.487 133.037 150.153 133.03 141.76C133.03 133.76 134.947 127.57 138.78 123.19C142.613 118.81 147.98 116.61 154.88 116.59C160.64 116.59 165.057 118.237 168.13 121.53C171.203 124.823 172.74 129.54 172.74 135.68C172.779 138.069 172.588 140.457 172.17 142.81L138.53 142.76ZM154.4 121.38C144.4 121.38 139.11 127.047 138.53 138.38H167.41C167.47 137.49 167.51 136.45 167.51 135.24C167.51 130.68 166.4 127.23 164.18 124.89C161.96 122.55 158.7 121.38 154.4 121.38Z" fill="#A166FF"/>
<path d="M183.75 165.75V118H188.5L189.07 124.94C191.045 122.619 193.449 120.701 196.15 119.29C198.603 118.147 201.284 117.576 203.99 117.62C205.291 117.638 206.59 117.735 207.88 117.91V122.75C206.23 122.63 204.75 122.56 203.42 122.56C200.747 122.508 198.098 123.061 195.67 124.18C193.171 125.46 190.959 127.236 189.17 129.4V165.79L183.75 165.75Z" fill="#A166FF"/>
<path d="M270.86 161.57C275.165 161.641 279.456 161.064 283.59 159.86V137.86H266.68V132.86H289.2V162.79C283.167 165.61 276.568 167.005 269.91 166.87C248.95 166.87 238.47 155.63 238.47 133.15C238.47 122.13 241.137 113.723 246.47 107.93C251.803 102.137 259.497 99.2367 269.55 99.23C275.556 99.2106 281.5 100.447 287 102.86V107.7C284.004 106.653 280.945 105.798 277.84 105.14C275.258 104.63 272.632 104.376 270 104.38C261.26 104.38 254.8 106.597 250.62 111.03C246.44 115.463 244.35 122.397 244.35 131.83V134.21C244.35 143.543 246.52 150.43 250.86 154.87C255.2 159.31 261.867 161.543 270.86 161.57Z" fill="#A166FF"/>
<path d="M302.69 165.75V118H307.44L308.01 124.94C309.983 122.617 312.387 120.698 315.09 119.29C317.54 118.148 320.217 117.577 322.92 117.62C324.225 117.638 325.527 117.735 326.82 117.91V122.75C325.17 122.63 323.68 122.56 322.35 122.56C319.681 122.509 317.035 123.063 314.61 124.18C312.108 125.459 309.893 127.236 308.1 129.4V165.79L302.69 165.75Z" fill="#A166FF"/>
<path d="M353 167.17C346.027 167.17 340.61 164.94 336.75 160.48C332.89 156.02 330.973 149.797 331 141.81C331 133.81 332.93 127.603 336.79 123.19C340.65 118.777 346.053 116.56 353 116.54C359.96 116.54 365.373 118.757 369.24 123.19C373.107 127.623 375.04 133.83 375.04 141.81C375.04 149.81 373.107 156.033 369.24 160.48C365.373 164.927 359.96 167.157 353 167.17ZM353 162.23C363.953 162.23 369.43 155.423 369.43 141.81C369.43 128.197 363.953 121.42 353 121.48C342.04 121.48 336.56 128.257 336.56 141.81C336.56 155.363 342.04 162.17 353 162.23Z" fill="#A166FF"/>
<path d="M419.54 165.75L418.97 160.52C412.97 164.96 406.73 167.177 400.25 167.17C395.69 167.17 392.193 165.937 389.76 163.47C387.327 161.003 386.107 157.393 386.1 152.64V118H391.51V150.4C391.51 154.58 392.303 157.603 393.89 159.47C395.477 161.337 397.977 162.27 401.39 162.27C404.363 162.294 407.318 161.814 410.13 160.85C413.241 159.7 416.181 158.132 418.87 156.19V118H424.29V165.79L419.54 165.75Z" fill="#A166FF"/>
<path d="M438.16 185.32V118H442.91L443.38 123.32C445.939 121.192 448.805 119.462 451.88 118.19C454.591 117.127 457.478 116.581 460.39 116.58C466.53 116.58 471.373 118.78 474.92 123.18C478.467 127.58 480.24 133.613 480.24 141.28C480.24 149.073 478.373 155.28 474.64 159.9C470.907 164.52 465.87 166.83 459.53 166.83C453.568 166.795 447.845 164.485 443.53 160.37V185.37L438.16 185.32ZM459.34 121.48C454.08 121.48 448.823 123.507 443.57 127.56V155.39C445.84 157.399 448.403 159.051 451.17 160.29C453.635 161.329 456.285 161.859 458.96 161.85C464.15 161.85 468.07 160.16 470.69 156.77C473.31 153.38 474.64 148.33 474.64 141.62C474.64 128.193 469.54 121.48 459.34 121.48Z" fill="#A166FF"/>
<path d="M51.44 78.35L49.63 72.51H40.86L39.12 78.35H33.31L42.31 52.71H48.41L57.41 78.35H51.44ZM42 68.51H48.44L45.22 57.78L42 68.51Z" fill="white"/>
<path d="M77.86 78.35L73.79 60.26L69.87 78.35H63.87L56.77 52.71H62.91L66.98 72.32L71.05 53.32H76.9L81 72.25L85 52.71H91L83.93 78.35H77.86Z" fill="white"/>
<path d="M99.47 67.14C97.6547 66.5719 96.0203 65.5375 94.73 64.14C93.6273 62.6361 93.1312 60.7722 93.3406 58.9192C93.55 57.0661 94.4495 55.3599 95.86 54.14C97.8505 52.671 100.29 51.9392 102.76 52.07C105.188 52.0754 107.595 52.5262 109.86 53.4V57.62C107.708 56.9187 105.463 56.5446 103.2 56.51C100.293 56.51 98.84 57.4467 98.84 59.32C98.8362 59.6385 98.9023 59.9541 99.0336 60.2443C99.1649 60.5346 99.3583 60.7925 99.6 61C100.456 61.6261 101.413 62.0997 102.43 62.4L105.16 63.4C107.012 63.9649 108.698 64.9742 110.07 66.34C111.079 67.5748 111.598 69.1371 111.53 70.73C111.577 71.8751 111.353 73.0151 110.877 74.0576C110.401 75.1001 109.686 76.0157 108.79 76.73C106.615 78.3066 103.962 79.0837 101.28 78.93C99.8876 78.9287 98.4983 78.7981 97.13 78.54C95.9123 78.3437 94.7211 78.0081 93.58 77.54V73.32C94.8917 73.7067 96.2281 74.004 97.58 74.21C98.8397 74.4171 100.113 74.5274 101.39 74.54C102.567 74.6134 103.739 74.3387 104.76 73.75C105.139 73.506 105.447 73.1672 105.654 72.7672C105.861 72.3672 105.959 71.92 105.94 71.47C105.957 71.1343 105.902 70.7989 105.777 70.4865C105.653 70.1742 105.463 69.8923 105.22 69.66C104.346 69.0024 103.365 68.5017 102.32 68.18L99.47 67.14Z" fill="white"/>
<path d="M503.651 166V53.2727H517.301V109.196H518.622L569.261 53.2727H587.095L539.759 104.132L587.095 166H570.582L531.392 113.599L517.301 129.452V166H503.651ZM600.581 166V156.092L648.578 94.4446V93.5639H602.122V81.4545H665.311V91.8026L618.635 153.01V153.891H666.852V166H600.581Z" fill="white"/>
</svg>
